<?xml version="1.0" encoding="utf-8"?>
<svg viewBox="46.3578 1.5373 404.2654 497.0294" width="404.2654" height="497.0294" xmlns="http://www.w3.org/2000/svg">
  <g transform="matrix(0.34431999921798706, 0, 0, -0.3060210645198822, -805.7808837890625, 718.2718505859375)" fill="#10b981" stroke="none">
    <path d="M 2930 2330 C 2703 2269 2549 2124 2493 1919 C 2477 1864 2475 1809 2475 1510 L 2475 1187.236 C 2474.044 1168.171 2477.666 1165.035 2481.75 1151.25 L 2502 1110 C 2510.552 1092.897 2523.117 1072.064 2536.254 1054.264 C 2559.983 1022.112 2582.192 1010.096 2572.101 1072.166 C 2557.101 1118.166 2565 1730 2579 1830 C 2599 1977 2698 2119 2827 2187 C 2889 2220 3072 2277 3155 2289 C 3185.009 2290.889 3225.87 2299.296 3159 2318 C 3086.625 2338.244 3019 2354 2930 2330 Z"/>
    <path d="M 3135 2234 C 3040 2210 2896.021 2162.959 2856 2143 C 2793.39 2111.776 2746.974 2077.074 2681.928 1971.202 C 2672.47 1955.808 2643.189 1895.339 2641.934 1854.853 C 2634.694 1703.332 2634.986 1454.709 2635 1455 L 2635 1069.453 C 2634.502 1039.496 2636.228 1037.076 2644.063 1018.75 L 2664 983 C 2669.081 973.515 2695.043 930.763 2702.846 921.791 C 2731.789 888.51 2732.905 945.022 2732.967 950.346 C 2730.847 1012.762 2735 1150 2735 1400 C 2735 1400 2726.115 1740.175 2733.774 1817.692 C 2745.421 1935.576 2789.883 2007.941 2914 2067 C 2962.87 2090.254 3228.931 2171.725 3288 2177 C 3317.591 2179.642 3337.772 2185.926 3340 2191 C 3350.05 2213.891 3189 2247 3135 2234 Z"/>
    <path d="M 3119 2082 C 3033 2055 2947 2023 2927 2011 C 2872 1977 2824 1918 2801 1855 C 2780 1798 2779 1787 2782 1366 L 2784.707 977.09 C 2787.879 925.929 2787.256 924.928 2812 884 C 2890.903 744.139 3043 682 3215 739 C 3416 806 3553 929 3610 1093 C 3644 1190 3652 1292 3648 1602 C 3645 1893 3645 1895 3619 1950 C 3566 2063 3479 2122 3355 2127 C 3283 2130 3260 2125 3119 2082 Z M 3428 2011 C 3473 1988 3514 1945 3531 1905 C 3548 1865 3556 1364 3541 1244 C 3527 1134 3489 1049 3418 974 C 3343 894 3258 850 3122 819 C 3029 798 2916 865 2891 956 C 2884 981 2880 1141 2880 1395 C 2880 1763 2882 1798 2899 1835 C 2933 1908 2965 1928 3132 1980 C 3304 2034 3370 2041 3428 2011 Z"/>
    <path d="M 3273 1968 L 3249.281 1960.094 C 3243.906 1954.655 3242.368 1953.565 3240 1943.424 L 3240 1626 C 3240 1414 3236 1281 3229 1255 C 3209 1185 3151 1139 3032 1099 L 2946.688 1071.109 C 2929.63 1064.182 2931.599 1049.652 2930.188 1047.92 L 2933 1022 C 2934.358 1011.134 2935.922 1000.883 2937.504 992.546 C 2939.417 982.469 2948.175 972.583 2955.105 974.011 C 2997.183 982.682 3135.221 1028.111 3173 1047 C 3221 1071 3280 1131 3308 1184 L 3325.297 1216.672 C 3325.916 1211.8 3335.946 1258.534 3335.234 1264.141 L 3338 1608 C 3341 2023 3347 1992 3273 1968 Z"/>
    <path d="M 3390 1605 C 3390 1257 3389 1238 3369 1183 C 3344 1119 3275 1038 3220 1010 C 3201 1001 3140 978 3085 960 C 3030 942 2981 924 2977 920 C 2960 905 3036 870 3086 870 C 3142 871 3261 914 3323 957 C 3381 997 3446 1090 3470 1167 C 3488 1226 3490 1260 3490 1552 C 3490 1856 3489 1874 3470 1905 C 3455.878 1927.752 3427.6 1954.812 3408.344 1965.416 C 3403.055 1968.329 3393.941 1964.569 3393.468 1954.473 C 3391.338 1909.088 3390 1769.423 3390 1605 Z"/>
  </g>
</svg>