<svg width="168" height="221" xmlns="http://www.w3.org/2000/svg" xmlns:xlink="http://www.w3.org/1999/xlink" xml:space="preserve" overflow="hidden"><defs><clipPath id="clip0"><rect x="878" y="360" width="168" height="221"/></clipPath></defs><g clip-path="url(#clip0)" transform="translate(-878 -360)"><path d="M0 577.084 0 384.722 384.722 384.722 769.445 384.722 769.445 577.084 769.445 769.445 384.722 769.445 0 769.445 0 577.084ZM396.289 677.162C403.078 674.27 403.078 673.013 396.037 672.133 387.488 671.001 364.104 663.709 356.182 659.686 342.102 652.52 330.031 637.809 326.134 623.1 323.997 615.305 323.619 521.387 325.631 514.346 326.259 511.957 326.511 509.695 326.134 509.317 325.003 508.186 317.333 517.615 314.065 524.027 311.298 529.684 311.172 531.194 310.796 568.912 310.167 615.556 311.172 624.105 318.213 638.941 328.272 659.561 345.621 672.133 374.036 679.425 378.31 680.557 391.386 679.174 396.289 677.162ZM416.531 663.206C422.44 660.315 422.44 658.806 416.657 658.806 410.873 658.806 374.916 648.244 367.121 644.347 359.954 640.702 350.148 630.392 346.628 622.597 343.988 616.813 343.861 615.179 343.484 562.122 343.232 517.741 343.484 506.551 344.993 501.522 345.874 498.128 346.25 495.362 345.747 495.362 345.118 495.362 342.478 498.002 339.587 501.145 330.66 511.329 330.534 512.335 330.912 569.666L331.289 620.46 335.312 629.009C340.216 639.444 349.771 649.754 358.697 654.154 362.343 656.04 371.772 659.561 379.693 661.949 396.164 666.978 407.857 667.356 416.531 663.206ZM435.767 649.502C444.694 645.353 450.226 640.073 454.626 631.524L458.272 624.231 458.272 579.598C458.272 539.869 458.021 534.085 456.009 527.422 452.363 515.604 446.329 505.419 438.156 497.122 428.853 487.818 420.429 482.915 404.839 477.76 395.158 474.491 391.512 473.863 385.729 474.366 371.647 475.623 359.075 484.046 353.04 496.494 350.148 502.276 350.148 502.528 350.148 558.853 350.148 614.927 350.148 615.43 352.913 621.088 356.434 628.128 364.48 636.552 370.515 639.319 373.03 640.576 382.962 643.97 392.768 646.862 414.645 653.525 425.584 654.28 435.767 649.502Z" fill="#BFCED3" transform="matrix(1.00515 0 0 -1 571.212 663.931)"/><path d="M396.164 634.164C386.231 631.146 376.299 627.626 374.162 626.369 369.51 623.603 365.109 617.442 363.349 611.155 361.715 605.121 361.715 512.586 363.349 506.551 367.875 490.458 382.962 483.92 401.192 490.207 423.447 497.75 436.773 510.449 442.682 529.433 444.819 536.349 445.071 541.377 445.071 578.719 445.071 616.562 444.819 620.962 442.682 625.488 438.534 634.54 429.732 640.073 419.675 639.821 416.657 639.821 406.096 637.181 396.164 634.164ZM419.675 584.753C420.051 539.869 419.675 537.103 412.383 527.171 407.101 520.004 400.941 516.232 387.363 511.706 374.036 507.305 371.521 507.431 373.407 512.335 374.036 514.095 374.162 515.478 373.533 515.478 372.904 515.478 372.653 516.483 373.03 517.866 373.407 519.376 377.179 521.513 384.471 524.279 397.421 529.182 403.707 534.714 405.971 543.515 406.85 547.286 407.353 563.003 407.353 587.771L407.353 626.243 413.388 625.866 419.297 625.488 419.675 584.753ZM433.001 624.608C432.373 623.729 432.75 623.476 434.008 623.98 438.282 625.615 438.91 619.328 438.534 575.701L438.156 533.709 434.636 526.29C427.721 511.329 417.789 502.528 402.073 497.122 392.141 493.727 383.968 493.35 380.699 495.865 376.299 499.134 378.059 501.396 388.871 505.294 404.21 511.078 409.365 513.969 415.023 520.13 425.332 531.445 425.584 532.199 425.96 577.712 426.087 599.84 426.464 619.202 426.841 620.836 427.218 622.471 428.853 624.231 430.361 624.859 434.008 626.369 434.008 626.369 433.001 624.608Z" fill="#BFCED3" transform="matrix(1.00515 0 0 -1 571.212 663.931)"/><path d="M368.378 292.942C339.838 285.273 320.477 267.043 313.436 241.269 311.424 234.353 311.172 227.439 311.172 189.847L311.172 146.471 314.568 139.556C316.453 135.784 319.974 130.629 322.362 128.367L326.888 123.966 325.38 128.367C323.494 134.15 322.488 217.507 324.248 230.079 326.762 248.561 339.209 266.414 355.428 274.964 363.223 279.112 386.231 286.279 396.666 287.787L402.953 288.793 397.169 291.434C388.62 295.457 379.568 295.96 368.378 292.942Z" fill="#BFCED3" transform="matrix(1.00515 0 0 -1 571.212 663.931)"/><path d="M394.152 280.873C382.208 277.855 364.104 271.946 359.075 269.431 350.148 264.905 340.719 254.847 335.564 244.538L331.289 235.737 331.289 182.932 331.289 130.127 334.935 123.589C336.821 120.068 340.216 115.542 342.227 113.531L345.999 110.011 344.993 114.41C344.364 116.8 343.861 144.585 343.861 176.017L343.861 233.223 347.382 240.011C351.28 247.303 360.206 256.733 366.367 259.877 372.401 263.019 405.971 272.952 413.388 273.706 416.908 274.083 419.926 274.964 419.926 275.467 419.926 278.609 400.941 282.507 394.152 280.873Z" fill="#BFCED3" transform="matrix(1.00515 0 0 -1 571.212 663.931)"/><path d="M392.141 261.763C381.328 258.367 370.515 254.344 368 252.836 361.086 248.561 355.052 241.143 352.159 233.223 349.519 226.056 349.393 224.673 349.771 171.742L350.148 117.554 353.542 111.142C363.223 92.6603 382.585 85.7453 404.21 92.9117 429.481 101.335 446.705 116.8 453.872 137.419 458.147 149.614 459.152 162.438 458.65 201.414 458.272 238 458.272 238.251 455.004 245.166 448.34 259.374 437.402 266.791 421.812 267.42 412.759 267.797 409.868 267.169 392.141 261.763ZM430.99 252.836C436.648 249.943 441.803 244.538 443.94 239.508 446.077 234.48 447.083 171.491 445.197 156.404 443.436 142.574 438.659 131.887 429.732 122.458 420.303 112.399 409.616 106.867 392.517 102.97 380.825 100.33 366.618 108.753 363.475 120.194 362.594 123.337 362.091 143.454 362.091 175.388 362.091 221.655 362.343 226.056 364.48 230.708 368.756 239.886 372.779 242.401 393.775 248.938 415.4 255.727 423.698 256.608 430.99 252.836Z" fill="#BFCED3" transform="matrix(1.00515 0 0 -1 571.212 663.931)"/><path d="M411.502 247.43 407.353 246.046 407.353 204.431C407.353 177.777 406.85 161.055 405.971 157.786 403.456 148.986 396.164 143.203 381.202 138.173L368.127 133.898 368.756 128.492C369.132 125.474 369.635 122.834 370.013 122.332 370.767 121.577 393.397 128.87 398.93 131.636 404.964 134.653 412.383 142.196 415.903 148.86L419.297 155.272 419.675 202.168C420.051 254.344 420.805 250.447 411.502 247.43Z" fill="#BFCED3" transform="matrix(1.00515 0 0 -1 571.212 663.931)"/><path d="M426.212 201.791C426.212 158.038 426.087 155.649 423.572 148.734 420.429 140.688 411.754 130.504 404.839 126.984 402.45 125.852 394.781 122.961 387.866 120.697 380.95 118.435 374.79 116.171 374.287 115.668 372.15 113.783 381.705 109.382 387.991 109.382 395.032 109.508 409.994 114.914 417.789 120.321 425.081 125.349 433.253 137.041 436.27 146.723 438.534 154.14 438.785 158.415 438.785 195.127 438.785 233.348 438.659 235.611 436.27 239.508 434.008 243.155 428.853 247.681 426.841 247.681 426.464 247.681 426.212 227.061 426.212 201.791Z" fill="#BFCED3" transform="matrix(1.00515 0 0 -1 571.212 663.931)"/></g></svg>