<svg width="167" height="221" xmlns="http://www.w3.org/2000/svg" xmlns:xlink="http://www.w3.org/1999/xlink" xml:space="preserve" overflow="hidden"><defs><clipPath id="clip0"><rect x="685" y="360" width="167" height="221"/></clipPath></defs><g clip-path="url(#clip0)" transform="translate(-685 -360)"><path d="M0 576.605 0 384.403 384.403 384.403 768.807 384.403 768.807 576.605 768.807 768.807 384.403 768.807 0 768.807 0 576.605ZM395.961 676.601C402.744 673.711 402.744 672.454 395.709 671.576 387.167 670.445 363.802 663.159 355.887 659.139 341.818 651.979 329.758 637.28 325.863 622.583 323.728 614.794 323.351 520.955 325.361 513.92 325.989 511.533 326.241 509.272 325.863 508.895 324.734 507.765 317.07 517.186 313.804 523.593 311.04 529.245 310.914 530.753 310.538 568.44 309.91 615.045 310.914 623.588 317.949 638.411 328 659.014 345.335 671.576 373.726 678.861 377.996 679.992 391.061 678.611 395.961 676.601ZM416.186 662.656C422.09 659.767 422.09 658.26 416.311 658.26 410.533 658.26 374.605 647.707 366.816 643.813 359.656 640.17 349.857 629.869 346.34 622.08 343.702 616.302 343.576 614.669 343.2 561.656 342.948 517.311 343.2 506.131 344.707 501.106 345.587 497.714 345.963 494.951 345.46 494.951 344.832 494.951 342.194 497.589 339.305 500.73 330.386 510.905 330.26 511.91 330.638 569.194L331.014 619.945 335.034 628.487C339.933 638.914 349.481 649.215 358.4 653.611 362.043 655.496 371.464 659.014 379.378 661.4 395.835 666.425 407.518 666.802 416.186 662.656ZM435.406 648.963C444.325 644.818 449.853 639.542 454.249 631L457.892 623.713 457.892 579.118C457.892 539.421 457.642 533.642 455.631 526.984 451.988 515.176 445.959 505 437.793 496.71 428.497 487.413 420.08 482.515 404.503 477.364 394.83 474.098 391.188 473.47 385.409 473.972 371.339 475.229 358.777 483.644 352.747 496.082 349.857 501.86 349.857 502.112 349.857 558.39 349.857 614.417 349.857 614.92 352.621 620.573 356.139 627.607 364.178 636.024 370.208 638.789 372.72 640.045 382.644 643.436 392.443 646.325 414.302 652.983 425.231 653.738 435.406 648.963Z" fill="#648A75" transform="matrix(1 0 0 -1.00083 380.038 663.931)"/><path d="M395.835 633.638C385.91 630.623 375.987 627.106 373.851 625.849 369.203 623.086 364.806 616.93 363.047 610.648 361.415 604.619 361.415 512.161 363.047 506.131 367.57 490.051 382.644 483.519 400.86 489.8 423.096 497.337 436.411 510.026 442.315 528.994 444.45 535.904 444.702 540.928 444.702 578.239 444.702 616.051 444.45 620.447 442.315 624.969 438.17 634.014 429.376 639.542 419.327 639.29 416.311 639.29 405.759 636.652 395.835 633.638ZM419.327 584.268C419.703 539.421 419.327 536.658 412.041 526.734 406.764 519.573 400.609 515.804 387.041 511.282 373.726 506.885 371.213 507.01 373.098 511.91 373.726 513.669 373.851 515.051 373.223 515.051 372.595 515.051 372.344 516.055 372.72 517.437 373.098 518.945 376.867 521.08 384.153 523.844 397.092 528.744 403.372 534.27 405.634 543.064 406.513 546.832 407.016 562.536 407.016 587.284L407.016 625.724 413.045 625.347 418.949 624.969 419.327 584.268ZM432.642 624.09C432.014 623.211 432.391 622.959 433.648 623.462 437.918 625.096 438.546 618.814 438.17 575.223L437.793 533.266 434.276 525.854C427.366 510.905 417.442 502.112 401.74 496.71 391.816 493.317 383.65 492.941 380.384 495.454 375.987 498.72 377.746 500.981 388.548 504.875 403.875 510.654 409.025 513.543 414.679 519.699 424.979 531.004 425.231 531.758 425.607 577.233 425.734 599.343 426.11 618.689 426.487 620.321 426.863 621.955 428.497 623.713 430.004 624.341 433.648 625.849 433.648 625.849 432.642 624.09Z" fill="#648A75" transform="matrix(1 0 0 -1.00083 380.038 663.931)"/><path d="M368.073 292.699C339.556 285.037 320.211 266.822 313.176 241.069 311.166 234.159 310.914 227.25 310.914 189.689L310.914 146.35 314.307 139.44C316.19 135.672 319.708 130.521 322.094 128.26L326.617 123.863 325.11 128.26C323.225 134.039 322.221 217.327 323.979 229.888 326.491 248.355 338.928 266.194 355.133 274.736 362.922 278.881 385.91 286.041 396.337 287.548L402.619 288.554 396.84 291.192C388.298 295.212 379.253 295.714 368.073 292.699Z" fill="#648A75" transform="matrix(1 0 0 -1.00083 380.038 663.931)"/><path d="M393.826 280.64C381.891 277.625 363.802 271.72 358.777 269.208 349.857 264.685 340.436 254.636 335.286 244.335L331.014 235.542 331.014 182.781 331.014 130.019 334.657 123.487C336.542 119.969 339.933 115.446 341.943 113.437L345.712 109.92 344.707 114.316C344.079 116.703 343.576 144.466 343.576 175.871L343.576 233.029 347.094 239.812C350.988 247.098 359.908 256.52 366.063 259.661 372.092 262.801 405.634 272.726 413.045 273.479 416.562 273.856 419.578 274.736 419.578 275.238 419.578 278.378 400.609 282.272 393.826 280.64Z" fill="#648A75" transform="matrix(1 0 0 -1.00083 380.038 663.931)"/><path d="M391.816 261.546C381.012 258.153 370.208 254.133 367.695 252.626 360.787 248.355 354.757 240.943 351.867 233.029 349.229 225.869 349.104 224.487 349.481 171.599L349.857 117.456 353.249 111.049C362.922 92.5834 382.268 85.6742 403.875 92.8347 429.125 101.251 446.335 116.703 453.495 137.305 457.767 149.49 458.771 162.304 458.27 201.247 457.892 237.802 457.892 238.053 454.626 244.963 447.969 259.158 437.039 266.57 421.462 267.198 412.417 267.575 409.528 266.947 391.816 261.546ZM430.632 252.626C436.286 249.736 441.436 244.335 443.572 239.31 445.707 234.285 446.712 171.348 444.828 156.274 443.069 142.456 438.295 131.777 429.376 122.356 419.955 112.306 409.276 106.779 392.192 102.884 380.509 100.246 366.314 108.663 363.174 120.094 362.294 123.235 361.791 143.335 361.791 175.243 361.791 221.472 362.043 225.869 364.178 230.517 368.45 239.687 372.47 242.2 393.448 248.732 415.055 255.515 423.346 256.395 430.632 252.626Z" fill="#648A75" transform="matrix(1 0 0 -1.00083 380.038 663.931)"/><path d="M411.161 247.225 407.016 245.842 407.016 204.262C407.016 177.63 406.513 160.922 405.634 157.656 403.121 148.863 395.835 143.084 380.886 138.059L367.822 133.787 368.45 128.386C368.826 125.37 369.329 122.732 369.706 122.231 370.46 121.476 393.071 128.763 398.599 131.526 404.628 134.542 412.041 142.078 415.558 148.736L418.949 155.143 419.327 202C419.703 254.133 420.456 250.239 411.161 247.225Z" fill="#648A75" transform="matrix(1 0 0 -1.00083 380.038 663.931)"/><path d="M425.859 201.624C425.859 157.906 425.734 155.52 423.221 148.611 420.08 140.571 411.413 130.395 404.503 126.879 402.116 125.748 394.454 122.859 387.544 120.597 380.634 118.336 374.479 116.075 373.977 115.572 371.841 113.688 381.388 109.291 387.67 109.291 394.705 109.417 409.654 114.818 417.442 120.221 424.728 125.245 432.894 136.928 435.908 146.601 438.17 154.012 438.421 158.284 438.421 194.965 438.421 233.155 438.295 235.415 435.908 239.31 433.648 242.953 428.497 247.476 426.487 247.476 426.11 247.476 425.859 226.873 425.859 201.624Z" fill="#648A75" transform="matrix(1 0 0 -1.00083 380.038 663.931)"/></g></svg>