<svg width="156" height="206" xmlns="http://www.w3.org/2000/svg" xmlns:xlink="http://www.w3.org/1999/xlink" xml:space="preserve" overflow="hidden"><defs><clipPath id="clip0"><rect x="566" y="436" width="156" height="206"/></clipPath></defs><g clip-path="url(#clip0)" transform="translate(-566 -436)"><path d="M0 537.915 0 358.61 358.61 358.61 717.22 358.61 717.22 537.915 717.22 717.22 358.61 717.22 0 717.22 0 537.915ZM369.392 631.201C375.72 628.505 375.72 627.333 369.157 626.513 361.188 625.458 339.391 618.661 332.007 614.911 318.882 608.231 307.631 594.519 303.998 580.808 302.006 573.542 301.654 485.999 303.529 479.436 304.115 477.209 304.35 475.1 303.998 474.748 302.944 473.694 295.795 482.483 292.748 488.46 290.169 493.733 290.052 495.14 289.701 530.298 289.115 573.776 290.052 581.745 296.615 595.574 305.991 614.794 322.163 626.513 348.649 633.31 352.633 634.365 364.821 633.076 369.392 631.201ZM388.26 618.192C393.768 615.497 393.768 614.091 388.377 614.091 382.986 614.091 349.469 604.246 342.203 600.613 335.523 597.215 326.382 587.605 323.101 580.339 320.64 574.948 320.522 573.425 320.171 523.969 319.936 482.6 320.171 472.17 321.577 467.482 322.398 464.318 322.749 461.74 322.28 461.74 321.694 461.74 319.233 464.201 316.538 467.131 308.217 476.623 308.1 477.561 308.452 531.001L308.803 578.347 312.553 586.316C317.124 596.043 326.031 605.653 334.351 609.754 337.75 611.512 346.539 614.794 353.922 617.02 369.275 621.708 380.174 622.06 388.26 618.192ZM406.19 605.418C414.511 601.551 419.668 596.629 423.769 588.66L427.168 581.862 427.168 540.259C427.168 503.226 426.934 497.835 425.058 491.624 421.66 480.608 416.035 471.115 408.417 463.381 399.745 454.708 391.893 450.138 377.361 445.333 368.337 442.286 364.939 441.7 359.548 442.169 346.422 443.341 334.703 451.192 329.078 462.795 326.382 468.185 326.382 468.42 326.382 520.922 326.382 573.19 326.382 573.659 328.96 578.933 332.242 585.495 339.742 593.347 345.367 595.926 347.711 597.098 356.969 600.262 366.11 602.957 386.502 609.168 396.698 609.872 406.19 605.418Z" transform="matrix(1.00132 0 0 -1 281.125 719.302)"/><path d="M369.275 591.121C360.016 588.308 350.758 585.027 348.766 583.855 344.43 581.277 340.328 575.534 338.687 569.674 337.164 564.049 337.164 477.795 338.687 472.17 342.906 457.169 356.969 451.075 373.962 456.935 394.706 463.966 407.128 475.803 412.636 493.499 414.628 499.945 414.863 504.632 414.863 539.439 414.863 574.714 414.628 578.815 412.636 583.034 408.769 591.472 400.565 596.629 391.19 596.394 388.377 596.394 378.533 593.933 369.275 591.121ZM391.19 545.064C391.541 503.226 391.19 500.648 384.393 491.39 379.47 484.71 373.728 481.194 361.071 476.975 348.649 472.873 346.305 472.99 348.063 477.561 348.649 479.202 348.766 480.491 348.18 480.491 347.594 480.491 347.36 481.428 347.711 482.717 348.063 484.124 351.579 486.116 358.376 488.694 370.447 493.265 376.306 498.421 378.416 506.625 379.236 510.14 379.705 524.79 379.705 547.877L379.705 583.738 385.33 583.386 390.838 583.034 391.19 545.064ZM403.612 582.214C403.026 581.394 403.378 581.159 404.55 581.628 408.534 583.152 409.12 577.292 408.769 536.626L408.417 497.484 405.136 490.569C398.69 476.623 389.432 468.42 374.783 463.381 365.525 460.216 357.907 459.865 354.86 462.209 350.758 465.256 352.399 467.365 362.477 470.998 376.775 476.389 381.58 479.084 386.854 484.827 396.463 495.374 396.698 496.077 397.049 538.501 397.167 559.127 397.518 577.175 397.87 578.698 398.221 580.222 399.745 581.862 401.151 582.448 404.55 583.855 404.55 583.855 403.612 582.214Z" transform="matrix(1.00132 0 0 -1 281.125 719.302)"/><path d="M343.375 273.059C316.772 265.911 298.725 248.918 292.162 224.893 290.287 218.447 290.052 212.002 290.052 176.961L290.052 136.53 293.217 130.084C294.974 126.568 298.256 121.763 300.482 119.654L304.701 115.552 303.295 119.654C301.537 125.045 300.6 202.744 302.24 214.463 304.584 231.69 316.186 248.332 331.304 256.301 338.57 260.168 360.016 266.848 369.743 268.254L375.603 269.192 370.212 271.653C362.243 275.403 353.805 275.872 343.375 273.059Z" transform="matrix(1.00132 0 0 -1 281.125 719.302)"/><path d="M367.4 261.809C356.266 258.996 339.391 253.488 334.703 251.144 326.382 246.925 317.593 237.55 312.788 227.94L308.803 219.737 308.803 170.516 308.803 121.295 312.202 115.201C313.96 111.919 317.124 107.7 318.999 105.825L322.515 102.544 321.577 106.645C320.991 108.872 320.522 134.772 320.522 164.07L320.522 217.393 323.804 223.721C327.437 230.518 335.758 239.308 341.5 242.238 347.125 245.167 378.416 254.426 385.33 255.129 388.611 255.48 391.424 256.301 391.424 256.77 391.424 259.699 373.728 263.332 367.4 261.809Z" transform="matrix(1.00132 0 0 -1 281.125 719.302)"/><path d="M365.525 243.996C355.446 240.831 345.367 237.081 343.023 235.675 336.578 231.69 330.953 224.776 328.257 217.393 325.796 210.713 325.679 209.424 326.031 160.085L326.382 109.575 329.546 103.598C338.57 86.3711 356.618 79.9255 376.775 86.6055 400.331 94.4574 416.386 108.872 423.066 128.092 427.051 139.459 427.988 151.413 427.52 187.743 427.168 221.846 427.168 222.08 424.121 228.526 417.91 241.769 407.714 248.683 393.182 249.269 384.744 249.621 382.049 249.035 365.525 243.996ZM401.737 235.675C407.011 232.979 411.816 227.94 413.808 223.252 415.8 218.565 416.738 159.851 414.98 145.788 413.339 132.897 408.886 122.935 400.565 114.146 391.776 104.77 381.814 99.6139 365.876 95.9809 354.977 93.5199 341.734 101.372 338.805 112.036 337.984 114.966 337.515 133.717 337.515 163.484 337.515 206.611 337.75 210.713 339.742 215.049 343.727 223.604 347.477 225.948 367.048 232.042 387.205 238.37 394.94 239.191 401.737 235.675Z" transform="matrix(1.00132 0 0 -1 281.125 719.302)"/><path d="M383.572 230.636 379.705 229.346 379.705 190.556C379.705 165.711 379.236 150.124 378.416 147.077 376.072 138.874 369.275 133.483 355.329 128.795L343.141 124.81 343.727 119.771C344.078 116.958 344.547 114.497 344.899 114.029 345.602 113.325 366.696 120.123 371.853 122.701 377.478 125.514 384.393 132.545 387.674 138.756L390.838 144.733 391.19 188.446C391.541 237.081 392.244 233.448 383.572 230.636Z" transform="matrix(1.00132 0 0 -1 281.125 719.302)"/><path d="M397.284 188.095C397.284 147.311 397.167 145.085 394.823 138.639 391.893 131.139 383.807 121.646 377.361 118.365 375.134 117.31 367.986 114.615 361.54 112.505 355.094 110.396 349.352 108.286 348.883 107.817 346.891 106.06 355.797 101.958 361.657 101.958 368.22 102.075 382.166 107.114 389.432 112.154 396.229 116.841 403.847 127.74 406.659 136.764 408.769 143.678 409.003 147.663 409.003 181.883 409.003 217.51 408.886 219.619 406.659 223.252 404.55 226.651 399.745 230.87 397.87 230.87 397.518 230.87 397.284 211.65 397.284 188.095Z" transform="matrix(1.00132 0 0 -1 281.125 719.302)"/></g></svg>