<svg width="119" height="28" xmlns="http://www.w3.org/2000/svg" xmlnsXlink="http://www.w3.org/1999/xlink"
    xmlSpace="preserve" overflow="hidden">
    <defs>
        <clipPath id="clip0">
            <rect x="509" y="214" width="119" height="28" />
        </clipPath>
        <clipPath id="clip1">
            <rect x="515" y="214" width="131" height="34" />
        </clipPath>
        <clipPath id="clip2">
            <rect x="515" y="214" width="131" height="34" />
        </clipPath>
        <clipPath id="clip3">
            <rect x="515" y="214" width="131" height="34" />
        </clipPath>
        <clipPath id="clip4">
            <rect x="515" y="214" width="131" height="34" />
        </clipPath>
        <clipPath id="clip5">
            <rect x="508" y="217" width="18" height="24" />
        </clipPath>
        <clipPath id="clip6">
            <rect x="508" y="217" width="18" height="24" />
        </clipPath>
        <clipPath id="clip7">
            <rect x="508" y="217" width="18" height="24" />
        </clipPath>
        <clipPath id="clip8">
            <rect x="508" y="217" width="18" height="24" />
        </clipPath>
    </defs>
    <g clip-path="url(#clip0)" transform="translate(-509 -214)">
        <g clip-path="url(#clip1)">
            <g clip-path="url(#clip2)">
                <g clip-path="url(#clip3)">
                    <g clip-path="url(#clip4)"><text fill="#FFFFFF" font-family="Inter,Inter_MSFontService,sans-serif"
                            font-weight="400" font-size="83"
                            transform="matrix(0.189904 0 0 0.190017 534.113 234)">zkp</text><text fill="#FFFFFF"
                            font-family="Inter,Inter_MSFontService,sans-serif" font-weight="400" font-size="83"
                            transform="matrix(0.189904 0 0 0.190017 560.89 234)">.</text><text fill="#FFFFFF"
                            font-family="Inter,Inter_MSFontService,sans-serif" font-weight="400" font-size="83"
                            transform="matrix(0.189904 0 0 0.190017 565.257 234)">services</text></g>
                </g>
            </g>
        </g>
        <g clip-path="url(#clip5)">
            <g clip-path="url(#clip6)">
                <g clip-path="url(#clip7)">
                    <g clip-path="url(#clip8)">
                        <path
                            d="M0 58.2763 0 38.8508 38.8508 38.8508 77.7016 38.8508 77.7016 58.2763 77.7016 77.7016 38.8508 77.7016 0 77.7016 0 58.2763ZM40.019 68.3826C40.7044 68.0904 40.7044 67.9635 39.9935 67.8747 39.1302 67.7604 36.7687 67.0239 35.9687 66.6177 34.5468 65.894 33.3278 64.4084 32.9342 62.9231 32.7184 62.136 32.6804 52.6517 32.8836 51.9408 32.947 51.6995 32.9724 51.4709 32.9342 51.4329 32.8201 51.3186 32.0456 52.2708 31.7154 52.9185 31.436 53.4896 31.4234 53.6421 31.3854 57.451 31.322 62.1612 31.4234 63.0245 32.1345 64.5227 33.1501 66.6051 34.9023 67.8747 37.7717 68.6109 38.2032 68.7254 39.5236 68.5857 40.019 68.3826ZM42.0631 66.9731C42.6596 66.6813 42.6596 66.5288 42.0757 66.5288 41.4917 66.5288 37.8606 65.4623 37.0732 65.0687 36.3496 64.7006 35.3594 63.6596 35.0039 62.8723 34.7372 62.2883 34.7245 62.1232 34.6865 56.7653 34.6609 52.2834 34.6865 51.1535 34.8388 50.6458 34.9277 50.303 34.9657 50.0236 34.9149 50.0236 34.8514 50.0236 34.5849 50.2902 34.2929 50.6078 33.3913 51.636 33.3787 51.7377 33.4169 57.5272L33.4549 62.6565 33.8612 63.5199C34.3563 64.5735 35.3213 65.6148 36.2227 66.0591 36.5909 66.2494 37.5432 66.6051 38.3429 66.8462 40.0061 67.3541 41.1869 67.3922 42.0631 66.9731ZM44.0055 65.5892C44.9069 65.1703 45.4657 64.6372 45.9099 63.7738L46.2782 63.0374 46.2782 58.5301C46.2782 54.5181 46.2528 53.9341 46.0496 53.2611 45.6814 52.0677 45.072 51.0392 44.2467 50.2013 43.3073 49.2617 42.4565 48.7668 40.8823 48.246 39.9047 47.916 39.5364 47.8526 38.9525 47.9034 37.5303 48.0303 36.2607 48.8808 35.6513 50.1379 35.3594 50.7218 35.3594 50.7472 35.3594 56.4353 35.3594 62.0978 35.3594 62.1486 35.6385 62.72 35.9942 63.4308 36.8067 64.2816 37.4161 64.5609 37.67 64.688 38.6731 65.0306 39.6633 65.3226 41.8725 65.9955 42.9771 66.0719 44.0055 65.5892Z"
                            fill="#34D298" transform="matrix(1.00329 0 0 -1 478.077 248.412)" />
                        <path
                            d="M40.0061 64.0404C39.0031 63.7356 38 63.3802 37.7843 63.2533 37.3146 62.9739 36.8701 62.3517 36.6924 61.7169 36.5273 61.1075 36.5273 51.7629 36.6924 51.1535 37.1495 49.5285 38.6731 48.8682 40.5141 49.5031 42.7613 50.2647 44.1072 51.5472 44.7038 53.4642 44.9197 54.1627 44.9451 54.6704 44.9451 58.4414 44.9451 62.2629 44.9197 62.7071 44.7038 63.1642 44.2849 64.0784 43.3961 64.6372 42.3805 64.6116 42.0757 64.6116 41.0092 64.345 40.0061 64.0404ZM42.3805 59.0508C42.4185 54.5181 42.3805 54.2387 41.644 53.2359 41.1106 52.5122 40.4887 52.1311 39.1174 51.674 37.7717 51.2298 37.5177 51.2424 37.7083 51.7377 37.7717 51.9154 37.7843 52.0551 37.7209 52.0551 37.6574 52.0551 37.632 52.1566 37.67 52.2962 37.7083 52.4485 38.0891 52.6645 38.8254 52.9437 40.1332 53.439 40.768 53.9975 40.9966 54.8863 41.0854 55.2672 41.1363 56.8542 41.1363 59.3554L41.1363 63.2405 41.7457 63.2025 42.3422 63.1642 42.3805 59.0508ZM43.7261 63.0754C43.6627 62.9865 43.7009 62.9611 43.8278 63.0119 44.2595 63.1771 44.3229 62.5422 44.2849 58.1366L44.2467 53.8961 43.8912 53.1468C43.193 51.636 42.1899 50.7472 40.6029 50.2013 39.5999 49.8585 38.7745 49.8205 38.4445 50.0744 38 50.4044 38.178 50.633 39.2697 51.0266 40.8187 51.6106 41.3394 51.9026 41.9108 52.5248 42.9516 53.6673 42.9771 53.7436 43.0151 58.3397 43.0279 60.5742 43.0659 62.5294 43.1041 62.6945 43.1422 62.8596 43.3073 63.0374 43.4596 63.1008 43.8278 63.2533 43.8278 63.2533 43.7261 63.0754Z"
                            fill="#34D298" transform="matrix(1.00329 0 0 -1 478.077 248.412)" />
                        <path
                            d="M37.2003 29.5824C34.3183 28.8081 32.363 26.9672 31.652 24.3643 31.4488 23.666 31.4234 22.9678 31.4234 19.1715L31.4234 14.7913 31.7662 14.0929C31.9566 13.712 32.3122 13.1915 32.5533 12.963L33.0104 12.5186 32.8581 12.963C32.6676 13.547 32.5662 21.9647 32.7439 23.2344 32.9978 25.1005 34.2546 26.9035 35.8925 27.7669 36.6798 28.1859 39.0031 28.9096 40.057 29.0619L40.6918 29.1636 40.1078 29.4301C39.2445 29.8364 38.3303 29.8872 37.2003 29.5824Z"
                            fill="#34D298" transform="matrix(1.00329 0 0 -1 478.077 248.412)" />
                        <path
                            d="M39.803 28.3637C38.5968 28.0589 36.7687 27.4623 36.2607 27.2083 35.3594 26.7512 34.4071 25.7356 33.8866 24.6943L33.4549 23.8057 33.4549 18.4732 33.4549 13.1408 33.8232 12.4806C34.0135 12.125 34.3563 11.6679 34.5594 11.4648L34.9403 11.1093 34.8388 11.5536C34.7752 11.7949 34.7245 14.6008 34.7245 17.7749L34.7245 23.5518 35.08 24.2374C35.4736 24.9737 36.375 25.9259 36.9972 26.2433 37.6066 26.5607 40.9966 27.5637 41.7457 27.64 42.1011 27.678 42.4057 27.7669 42.4057 27.8177 42.4057 28.1351 40.4887 28.5286 39.803 28.3637Z"
                            fill="#34D298" transform="matrix(1.00329 0 0 -1 478.077 248.412)" />
                        <path
                            d="M39.5999 26.4338C38.508 26.091 37.4161 25.6847 37.1621 25.5324 36.4639 25.1005 35.8545 24.3517 35.5625 23.5518 35.2959 22.8281 35.2831 22.6884 35.3213 17.3432L35.3594 11.8711 35.7022 11.2235C36.6798 9.3572 38.6351 8.65891 40.8187 9.3826 43.3707 10.2332 45.11 11.7949 45.8337 13.8771 46.2656 15.1086 46.367 16.4037 46.3164 20.3395 46.2782 24.0343 46.2782 24.0595 45.9482 24.7579 45.2751 26.1927 44.1706 26.9415 42.5962 27.0052 41.682 27.0432 41.39 26.9798 39.5999 26.4338ZM43.523 25.5324C44.0944 25.2402 44.6149 24.6943 44.8308 24.1866 45.0466 23.6786 45.1483 17.3178 44.9577 15.7943 44.78 14.3977 44.2975 13.3184 43.3961 12.3663 42.4439 11.3505 41.3646 10.7919 39.6379 10.3983 38.4571 10.1317 37.0224 10.9824 36.7052 12.1377 36.6162 12.4551 36.5655 14.4865 36.5655 17.7114 36.5655 22.3836 36.5909 22.8281 36.8067 23.2978 37.2384 24.2246 37.6446 24.4785 39.765 25.1388 41.9488 25.8244 42.7867 25.9133 43.523 25.5324Z"
                            fill="#34D298" transform="matrix(1.00329 0 0 -1 478.077 248.412)" />
                        <path
                            d="M41.5551 24.9865 41.1363 24.8468 41.1363 20.6443C41.1363 17.9527 41.0854 16.264 40.9966 15.9339 40.7426 15.0452 40.0061 14.4612 38.4954 13.9533L37.1749 13.5216 37.2384 12.9756C37.2764 12.6709 37.3272 12.4043 37.3654 12.3536 37.4415 12.2773 39.7268 13.0138 40.2855 13.2931 40.8949 13.5978 41.644 14.3596 41.9994 15.0324L42.3422 15.68 42.3805 20.4157C42.4185 25.6847 42.4945 25.2911 41.5551 24.9865Z"
                            fill="#34D298" transform="matrix(1.00329 0 0 -1 478.077 248.412)" />
                        <path
                            d="M43.0407 20.3777C43.0407 15.9593 43.0279 15.7181 42.7739 15.0198 42.4565 14.2072 41.5806 13.1788 40.8823 12.8233 40.6409 12.709 39.8667 12.4171 39.1682 12.1885 38.47 11.96 37.8478 11.7314 37.7969 11.6806 37.5812 11.4902 38.546 11.0458 39.1808 11.0458 39.8919 11.0585 41.4028 11.6044 42.1899 12.1505 42.9264 12.6582 43.7515 13.839 44.0563 14.8166 44.2849 15.5657 44.3103 15.9974 44.3103 19.7047 44.3103 23.5644 44.2975 23.7929 44.0563 24.1866 43.8278 24.5548 43.3073 25.0119 43.1041 25.0119 43.0659 25.0119 43.0407 22.9296 43.0407 20.3777Z"
                            fill="#34D298" transform="matrix(1.00329 0 0 -1 478.077 248.412)" />
                    </g>
                </g>
            </g>
        </g>
    </g>
</svg>